<mxfile host="app.diagrams.net" agent="Mozilla/5.0 (Macintosh; Intel Mac OS X 10_15_7) AppleWebKit/605.1.15 (KHTML, like Gecko) Version/18.0 Safari/605.1.15" version="24.7.17">
  <diagram name="Pagina-1" id="0qzzMYINNlGovGyUZegi">
    <mxGraphModel grid="1" page="1" gridSize="10" guides="1" tooltips="1" connect="1" arrows="1" fold="1" pageScale="1" pageWidth="827" pageHeight="1169" math="0" shadow="0">
      <root>
        <mxCell id="0" />
        <mxCell id="1" parent="0" />
        <mxCell id="-TRMTuf33lLg_CGuzAfY-1" value="&lt;b style=&quot;font-size: 18px;&quot;&gt;ESERCIZIO 7: &lt;/b&gt;&amp;nbsp;Creare un diagramma di flusso che prenda in input il valore di una variabile n.&lt;div&gt;&amp;nbsp;Il diagramma di flusso deve stampare tutti i valori PARI che sono&amp;nbsp;&lt;div&gt;tra 1 e n, compreso.&lt;/div&gt;&lt;div&gt;Esempio: Se n = 6, il programma deve stampare (dare in output) : 2, 4, 6.&amp;nbsp;&lt;/div&gt;&lt;/div&gt;&lt;div&gt;In quanto solo questi sono valori PARI compresi tra 1 e 6.&lt;/div&gt;" style="text;html=1;align=center;verticalAlign=middle;resizable=0;points=[];autosize=1;strokeColor=none;fillColor=none;fontSize=18;" vertex="1" parent="1">
          <mxGeometry x="28" y="30" width="770" height="120" as="geometry" />
        </mxCell>
        <mxCell id="-TRMTuf33lLg_CGuzAfY-21" value="" style="edgeStyle=orthogonalEdgeStyle;rounded=0;orthogonalLoop=1;jettySize=auto;html=1;" edge="1" parent="1" source="-TRMTuf33lLg_CGuzAfY-22" target="-TRMTuf33lLg_CGuzAfY-24">
          <mxGeometry relative="1" as="geometry" />
        </mxCell>
        <mxCell id="-TRMTuf33lLg_CGuzAfY-22" value="" style="ellipse;whiteSpace=wrap;html=1;aspect=fixed;" vertex="1" parent="1">
          <mxGeometry x="380" y="170" width="80" height="80" as="geometry" />
        </mxCell>
        <mxCell id="-TRMTuf33lLg_CGuzAfY-23" value="" style="edgeStyle=orthogonalEdgeStyle;rounded=0;orthogonalLoop=1;jettySize=auto;html=1;" edge="1" parent="1" source="-TRMTuf33lLg_CGuzAfY-24" target="-TRMTuf33lLg_CGuzAfY-26">
          <mxGeometry relative="1" as="geometry" />
        </mxCell>
        <mxCell id="-TRMTuf33lLg_CGuzAfY-24" value="&lt;font style=&quot;font-size: 16px;&quot;&gt;n, i = 1&lt;/font&gt;" style="shape=hexagon;perimeter=hexagonPerimeter2;whiteSpace=wrap;html=1;fixedSize=1;" vertex="1" parent="1">
          <mxGeometry x="360" y="280" width="120" height="80" as="geometry" />
        </mxCell>
        <mxCell id="-TRMTuf33lLg_CGuzAfY-25" value="" style="edgeStyle=orthogonalEdgeStyle;rounded=0;orthogonalLoop=1;jettySize=auto;html=1;" edge="1" parent="1" source="-TRMTuf33lLg_CGuzAfY-26" target="-TRMTuf33lLg_CGuzAfY-28">
          <mxGeometry relative="1" as="geometry" />
        </mxCell>
        <mxCell id="-TRMTuf33lLg_CGuzAfY-26" value="&lt;font style=&quot;font-size: 16px;&quot;&gt;n&lt;/font&gt;" style="shape=parallelogram;perimeter=parallelogramPerimeter;whiteSpace=wrap;html=1;fixedSize=1;fillColor=#d5e8d4;strokeColor=#82b366;" vertex="1" parent="1">
          <mxGeometry x="360" y="400" width="120" height="60" as="geometry" />
        </mxCell>
        <mxCell id="-TRMTuf33lLg_CGuzAfY-27" value="" style="edgeStyle=orthogonalEdgeStyle;rounded=0;orthogonalLoop=1;jettySize=auto;html=1;" edge="1" parent="1" source="-TRMTuf33lLg_CGuzAfY-28" target="-TRMTuf33lLg_CGuzAfY-31">
          <mxGeometry relative="1" as="geometry" />
        </mxCell>
        <mxCell id="-TRMTuf33lLg_CGuzAfY-28" value="" style="ellipse;whiteSpace=wrap;html=1;" vertex="1" parent="1">
          <mxGeometry x="400" y="490" width="40" height="40" as="geometry" />
        </mxCell>
        <mxCell id="-TRMTuf33lLg_CGuzAfY-30" value="" style="edgeStyle=orthogonalEdgeStyle;rounded=0;orthogonalLoop=1;jettySize=auto;html=1;" edge="1" parent="1" source="-TRMTuf33lLg_CGuzAfY-31" target="-TRMTuf33lLg_CGuzAfY-39">
          <mxGeometry relative="1" as="geometry">
            <Array as="points">
              <mxPoint x="250" y="605" />
            </Array>
          </mxGeometry>
        </mxCell>
        <mxCell id="-TRMTuf33lLg_CGuzAfY-42" style="edgeStyle=orthogonalEdgeStyle;rounded=0;orthogonalLoop=1;jettySize=auto;html=1;entryX=0.5;entryY=0;entryDx=0;entryDy=0;" edge="1" parent="1" source="-TRMTuf33lLg_CGuzAfY-31" target="-TRMTuf33lLg_CGuzAfY-41">
          <mxGeometry relative="1" as="geometry" />
        </mxCell>
        <mxCell id="-TRMTuf33lLg_CGuzAfY-31" value="i &amp;lt;= n" style="rhombus;whiteSpace=wrap;html=1;fontSize=16;" vertex="1" parent="1">
          <mxGeometry x="380" y="565" width="80" height="80" as="geometry" />
        </mxCell>
        <mxCell id="-TRMTuf33lLg_CGuzAfY-46" value="" style="edgeStyle=orthogonalEdgeStyle;rounded=0;orthogonalLoop=1;jettySize=auto;html=1;" edge="1" parent="1" source="-TRMTuf33lLg_CGuzAfY-33" target="-TRMTuf33lLg_CGuzAfY-38">
          <mxGeometry relative="1" as="geometry" />
        </mxCell>
        <mxCell id="-TRMTuf33lLg_CGuzAfY-33" value="i" style="shape=parallelogram;perimeter=parallelogramPerimeter;whiteSpace=wrap;html=1;fixedSize=1;fontSize=16;fillColor=#f8cecc;strokeColor=#b85450;" vertex="1" parent="1">
          <mxGeometry x="660" y="720" width="120" height="60" as="geometry" />
        </mxCell>
        <mxCell id="-TRMTuf33lLg_CGuzAfY-34" value="V" style="text;html=1;align=center;verticalAlign=middle;resizable=0;points=[];autosize=1;strokeColor=none;fillColor=none;" vertex="1" parent="1">
          <mxGeometry x="570" y="580" width="30" height="30" as="geometry" />
        </mxCell>
        <mxCell id="-TRMTuf33lLg_CGuzAfY-35" value="o" style="text;html=1;align=center;verticalAlign=middle;resizable=0;points=[];autosize=1;strokeColor=none;fillColor=none;" vertex="1" parent="1">
          <mxGeometry x="750" y="690" width="30" height="30" as="geometry" />
        </mxCell>
        <mxCell id="-TRMTuf33lLg_CGuzAfY-36" value="i" style="text;html=1;align=center;verticalAlign=middle;resizable=0;points=[];autosize=1;strokeColor=none;fillColor=none;" vertex="1" parent="1">
          <mxGeometry x="455" y="378" width="30" height="30" as="geometry" />
        </mxCell>
        <mxCell id="-TRMTuf33lLg_CGuzAfY-51" style="edgeStyle=orthogonalEdgeStyle;rounded=0;orthogonalLoop=1;jettySize=auto;html=1;entryX=1;entryY=0.5;entryDx=0;entryDy=0;" edge="1" parent="1" source="-TRMTuf33lLg_CGuzAfY-38" target="-TRMTuf33lLg_CGuzAfY-50">
          <mxGeometry relative="1" as="geometry">
            <Array as="points">
              <mxPoint x="720" y="920" />
            </Array>
          </mxGeometry>
        </mxCell>
        <mxCell id="-TRMTuf33lLg_CGuzAfY-38" value="i = i + 1" style="whiteSpace=wrap;html=1;fontSize=16;" vertex="1" parent="1">
          <mxGeometry x="660" y="810" width="120" height="60" as="geometry" />
        </mxCell>
        <mxCell id="-TRMTuf33lLg_CGuzAfY-39" value="" style="ellipse;whiteSpace=wrap;html=1;fontSize=16;fillColor=#000000;" vertex="1" parent="1">
          <mxGeometry x="210" y="640" width="80" height="80" as="geometry" />
        </mxCell>
        <mxCell id="-TRMTuf33lLg_CGuzAfY-40" value="F" style="text;html=1;align=center;verticalAlign=middle;resizable=0;points=[];autosize=1;strokeColor=none;fillColor=none;" vertex="1" parent="1">
          <mxGeometry x="250" y="580" width="30" height="30" as="geometry" />
        </mxCell>
        <mxCell id="-TRMTuf33lLg_CGuzAfY-49" style="edgeStyle=orthogonalEdgeStyle;rounded=0;orthogonalLoop=1;jettySize=auto;html=1;" edge="1" parent="1" source="-TRMTuf33lLg_CGuzAfY-41" target="-TRMTuf33lLg_CGuzAfY-47">
          <mxGeometry relative="1" as="geometry">
            <Array as="points">
              <mxPoint x="490" y="674" />
            </Array>
          </mxGeometry>
        </mxCell>
        <mxCell id="-TRMTuf33lLg_CGuzAfY-41" value="i % 2 == 0" style="rhombus;whiteSpace=wrap;html=1;fontSize=16;" vertex="1" parent="1">
          <mxGeometry x="550" y="628" width="100" height="92" as="geometry" />
        </mxCell>
        <mxCell id="-TRMTuf33lLg_CGuzAfY-43" style="edgeStyle=orthogonalEdgeStyle;rounded=0;orthogonalLoop=1;jettySize=auto;html=1;entryX=0.604;entryY=-0.006;entryDx=0;entryDy=0;entryPerimeter=0;" edge="1" parent="1" source="-TRMTuf33lLg_CGuzAfY-41" target="-TRMTuf33lLg_CGuzAfY-33">
          <mxGeometry relative="1" as="geometry" />
        </mxCell>
        <mxCell id="-TRMTuf33lLg_CGuzAfY-44" value="V" style="text;html=1;align=center;verticalAlign=middle;resizable=0;points=[];autosize=1;strokeColor=none;fillColor=none;" vertex="1" parent="1">
          <mxGeometry x="705" y="645" width="30" height="30" as="geometry" />
        </mxCell>
        <mxCell id="-TRMTuf33lLg_CGuzAfY-45" value="Caso PARI" style="text;html=1;align=center;verticalAlign=middle;resizable=0;points=[];autosize=1;strokeColor=none;fillColor=none;fontStyle=1" vertex="1" parent="1">
          <mxGeometry x="670" y="628" width="80" height="30" as="geometry" />
        </mxCell>
        <mxCell id="-TRMTuf33lLg_CGuzAfY-52" style="edgeStyle=orthogonalEdgeStyle;rounded=0;orthogonalLoop=1;jettySize=auto;html=1;entryX=0;entryY=0.5;entryDx=0;entryDy=0;" edge="1" parent="1" source="-TRMTuf33lLg_CGuzAfY-47" target="-TRMTuf33lLg_CGuzAfY-50">
          <mxGeometry relative="1" as="geometry">
            <Array as="points">
              <mxPoint x="490" y="920" />
            </Array>
          </mxGeometry>
        </mxCell>
        <mxCell id="-TRMTuf33lLg_CGuzAfY-47" value="i = i + 1" style="whiteSpace=wrap;html=1;fontSize=16;" vertex="1" parent="1">
          <mxGeometry x="430" y="750" width="120" height="60" as="geometry" />
        </mxCell>
        <mxCell id="-TRMTuf33lLg_CGuzAfY-53" style="edgeStyle=orthogonalEdgeStyle;rounded=0;orthogonalLoop=1;jettySize=auto;html=1;entryX=1;entryY=0.5;entryDx=0;entryDy=0;" edge="1" parent="1" source="-TRMTuf33lLg_CGuzAfY-50" target="-TRMTuf33lLg_CGuzAfY-28">
          <mxGeometry relative="1" as="geometry">
            <Array as="points">
              <mxPoint x="600" y="960" />
              <mxPoint x="800" y="960" />
              <mxPoint x="800" y="510" />
            </Array>
          </mxGeometry>
        </mxCell>
        <mxCell id="-TRMTuf33lLg_CGuzAfY-50" value="" style="ellipse;whiteSpace=wrap;html=1;" vertex="1" parent="1">
          <mxGeometry x="580" y="900" width="40" height="40" as="geometry" />
        </mxCell>
        <mxCell id="-TRMTuf33lLg_CGuzAfY-54" value="Caso DISPARI" style="text;html=1;align=center;verticalAlign=middle;resizable=0;points=[];autosize=1;strokeColor=none;fillColor=none;fontStyle=1" vertex="1" parent="1">
          <mxGeometry x="445" y="628" width="100" height="30" as="geometry" />
        </mxCell>
        <mxCell id="-TRMTuf33lLg_CGuzAfY-55" value="SOLUZIONE ALTERNATIVA" style="text;html=1;align=center;verticalAlign=middle;resizable=0;points=[];autosize=1;strokeColor=none;fillColor=none;fontStyle=1" vertex="1" parent="1">
          <mxGeometry x="323" y="1200" width="180" height="30" as="geometry" />
        </mxCell>
        <mxCell id="-TRMTuf33lLg_CGuzAfY-56" value="" style="edgeStyle=orthogonalEdgeStyle;rounded=0;orthogonalLoop=1;jettySize=auto;html=1;" edge="1" parent="1" source="-TRMTuf33lLg_CGuzAfY-57" target="-TRMTuf33lLg_CGuzAfY-59">
          <mxGeometry relative="1" as="geometry" />
        </mxCell>
        <mxCell id="-TRMTuf33lLg_CGuzAfY-57" value="" style="ellipse;whiteSpace=wrap;html=1;aspect=fixed;" vertex="1" parent="1">
          <mxGeometry x="380" y="1250" width="80" height="80" as="geometry" />
        </mxCell>
        <mxCell id="-TRMTuf33lLg_CGuzAfY-58" value="" style="edgeStyle=orthogonalEdgeStyle;rounded=0;orthogonalLoop=1;jettySize=auto;html=1;" edge="1" parent="1" source="-TRMTuf33lLg_CGuzAfY-59" target="-TRMTuf33lLg_CGuzAfY-61">
          <mxGeometry relative="1" as="geometry" />
        </mxCell>
        <mxCell id="-TRMTuf33lLg_CGuzAfY-59" value="&lt;font style=&quot;font-size: 16px;&quot;&gt;n, i = 1&lt;/font&gt;" style="shape=hexagon;perimeter=hexagonPerimeter2;whiteSpace=wrap;html=1;fixedSize=1;" vertex="1" parent="1">
          <mxGeometry x="360" y="1360" width="120" height="80" as="geometry" />
        </mxCell>
        <mxCell id="-TRMTuf33lLg_CGuzAfY-60" value="" style="edgeStyle=orthogonalEdgeStyle;rounded=0;orthogonalLoop=1;jettySize=auto;html=1;" edge="1" parent="1" source="-TRMTuf33lLg_CGuzAfY-61" target="-TRMTuf33lLg_CGuzAfY-63">
          <mxGeometry relative="1" as="geometry" />
        </mxCell>
        <mxCell id="-TRMTuf33lLg_CGuzAfY-61" value="&lt;font style=&quot;font-size: 16px;&quot;&gt;n&lt;/font&gt;" style="shape=parallelogram;perimeter=parallelogramPerimeter;whiteSpace=wrap;html=1;fixedSize=1;fillColor=#d5e8d4;strokeColor=#82b366;" vertex="1" parent="1">
          <mxGeometry x="360" y="1480" width="120" height="60" as="geometry" />
        </mxCell>
        <mxCell id="-TRMTuf33lLg_CGuzAfY-62" value="" style="edgeStyle=orthogonalEdgeStyle;rounded=0;orthogonalLoop=1;jettySize=auto;html=1;" edge="1" parent="1" source="-TRMTuf33lLg_CGuzAfY-63" target="-TRMTuf33lLg_CGuzAfY-66">
          <mxGeometry relative="1" as="geometry" />
        </mxCell>
        <mxCell id="-TRMTuf33lLg_CGuzAfY-63" value="" style="ellipse;whiteSpace=wrap;html=1;" vertex="1" parent="1">
          <mxGeometry x="400" y="1570" width="40" height="40" as="geometry" />
        </mxCell>
        <mxCell id="-TRMTuf33lLg_CGuzAfY-64" value="" style="edgeStyle=orthogonalEdgeStyle;rounded=0;orthogonalLoop=1;jettySize=auto;html=1;" edge="1" parent="1" source="-TRMTuf33lLg_CGuzAfY-66" target="-TRMTuf33lLg_CGuzAfY-74">
          <mxGeometry relative="1" as="geometry">
            <Array as="points">
              <mxPoint x="250" y="1685" />
            </Array>
          </mxGeometry>
        </mxCell>
        <mxCell id="-TRMTuf33lLg_CGuzAfY-65" style="edgeStyle=orthogonalEdgeStyle;rounded=0;orthogonalLoop=1;jettySize=auto;html=1;entryX=0.5;entryY=0;entryDx=0;entryDy=0;" edge="1" parent="1" source="-TRMTuf33lLg_CGuzAfY-66" target="-TRMTuf33lLg_CGuzAfY-77">
          <mxGeometry relative="1" as="geometry" />
        </mxCell>
        <mxCell id="-TRMTuf33lLg_CGuzAfY-66" value="i &amp;lt;= n" style="rhombus;whiteSpace=wrap;html=1;fontSize=16;" vertex="1" parent="1">
          <mxGeometry x="380" y="1645" width="80" height="80" as="geometry" />
        </mxCell>
        <mxCell id="-TRMTuf33lLg_CGuzAfY-86" style="edgeStyle=orthogonalEdgeStyle;rounded=0;orthogonalLoop=1;jettySize=auto;html=1;entryX=1;entryY=0.5;entryDx=0;entryDy=0;" edge="1" parent="1" source="-TRMTuf33lLg_CGuzAfY-68" target="-TRMTuf33lLg_CGuzAfY-84">
          <mxGeometry relative="1" as="geometry">
            <Array as="points">
              <mxPoint x="730" y="1910" />
            </Array>
          </mxGeometry>
        </mxCell>
        <mxCell id="-TRMTuf33lLg_CGuzAfY-68" value="i" style="shape=parallelogram;perimeter=parallelogramPerimeter;whiteSpace=wrap;html=1;fixedSize=1;fontSize=16;fillColor=#f8cecc;strokeColor=#b85450;" vertex="1" parent="1">
          <mxGeometry x="660" y="1800" width="120" height="60" as="geometry" />
        </mxCell>
        <mxCell id="-TRMTuf33lLg_CGuzAfY-69" value="V" style="text;html=1;align=center;verticalAlign=middle;resizable=0;points=[];autosize=1;strokeColor=none;fillColor=none;" vertex="1" parent="1">
          <mxGeometry x="570" y="1660" width="30" height="30" as="geometry" />
        </mxCell>
        <mxCell id="-TRMTuf33lLg_CGuzAfY-70" value="o" style="text;html=1;align=center;verticalAlign=middle;resizable=0;points=[];autosize=1;strokeColor=none;fillColor=none;" vertex="1" parent="1">
          <mxGeometry x="750" y="1770" width="30" height="30" as="geometry" />
        </mxCell>
        <mxCell id="-TRMTuf33lLg_CGuzAfY-71" value="i" style="text;html=1;align=center;verticalAlign=middle;resizable=0;points=[];autosize=1;strokeColor=none;fillColor=none;" vertex="1" parent="1">
          <mxGeometry x="455" y="1458" width="30" height="30" as="geometry" />
        </mxCell>
        <mxCell id="-TRMTuf33lLg_CGuzAfY-74" value="" style="ellipse;whiteSpace=wrap;html=1;fontSize=16;fillColor=#000000;" vertex="1" parent="1">
          <mxGeometry x="210" y="1720" width="80" height="80" as="geometry" />
        </mxCell>
        <mxCell id="-TRMTuf33lLg_CGuzAfY-75" value="F" style="text;html=1;align=center;verticalAlign=middle;resizable=0;points=[];autosize=1;strokeColor=none;fillColor=none;" vertex="1" parent="1">
          <mxGeometry x="250" y="1660" width="30" height="30" as="geometry" />
        </mxCell>
        <mxCell id="-TRMTuf33lLg_CGuzAfY-87" style="edgeStyle=orthogonalEdgeStyle;rounded=0;orthogonalLoop=1;jettySize=auto;html=1;entryX=0;entryY=0.5;entryDx=0;entryDy=0;" edge="1" parent="1" source="-TRMTuf33lLg_CGuzAfY-77" target="-TRMTuf33lLg_CGuzAfY-84">
          <mxGeometry relative="1" as="geometry">
            <Array as="points">
              <mxPoint x="520" y="1754" />
              <mxPoint x="520" y="1910" />
            </Array>
          </mxGeometry>
        </mxCell>
        <mxCell id="-TRMTuf33lLg_CGuzAfY-77" value="i % 2 == 0" style="rhombus;whiteSpace=wrap;html=1;fontSize=16;" vertex="1" parent="1">
          <mxGeometry x="550" y="1708" width="100" height="92" as="geometry" />
        </mxCell>
        <mxCell id="-TRMTuf33lLg_CGuzAfY-78" style="edgeStyle=orthogonalEdgeStyle;rounded=0;orthogonalLoop=1;jettySize=auto;html=1;entryX=0.604;entryY=-0.006;entryDx=0;entryDy=0;entryPerimeter=0;" edge="1" parent="1" source="-TRMTuf33lLg_CGuzAfY-77" target="-TRMTuf33lLg_CGuzAfY-68">
          <mxGeometry relative="1" as="geometry" />
        </mxCell>
        <mxCell id="-TRMTuf33lLg_CGuzAfY-79" value="V" style="text;html=1;align=center;verticalAlign=middle;resizable=0;points=[];autosize=1;strokeColor=none;fillColor=none;" vertex="1" parent="1">
          <mxGeometry x="705" y="1725" width="30" height="30" as="geometry" />
        </mxCell>
        <mxCell id="-TRMTuf33lLg_CGuzAfY-80" value="Caso PARI" style="text;html=1;align=center;verticalAlign=middle;resizable=0;points=[];autosize=1;strokeColor=none;fillColor=none;fontStyle=1" vertex="1" parent="1">
          <mxGeometry x="670" y="1708" width="80" height="30" as="geometry" />
        </mxCell>
        <mxCell id="-TRMTuf33lLg_CGuzAfY-89" value="" style="edgeStyle=orthogonalEdgeStyle;rounded=0;orthogonalLoop=1;jettySize=auto;html=1;" edge="1" parent="1" source="-TRMTuf33lLg_CGuzAfY-84" target="-TRMTuf33lLg_CGuzAfY-88">
          <mxGeometry relative="1" as="geometry" />
        </mxCell>
        <mxCell id="-TRMTuf33lLg_CGuzAfY-84" value="" style="ellipse;whiteSpace=wrap;html=1;" vertex="1" parent="1">
          <mxGeometry x="580" y="1890" width="40" height="40" as="geometry" />
        </mxCell>
        <mxCell id="-TRMTuf33lLg_CGuzAfY-85" value="Caso DISPARI" style="text;html=1;align=center;verticalAlign=middle;resizable=0;points=[];autosize=1;strokeColor=none;fillColor=none;fontStyle=1" vertex="1" parent="1">
          <mxGeometry x="450" y="1708" width="100" height="30" as="geometry" />
        </mxCell>
        <mxCell id="-TRMTuf33lLg_CGuzAfY-90" style="edgeStyle=orthogonalEdgeStyle;rounded=0;orthogonalLoop=1;jettySize=auto;html=1;entryX=1;entryY=0.5;entryDx=0;entryDy=0;" edge="1" parent="1" source="-TRMTuf33lLg_CGuzAfY-88" target="-TRMTuf33lLg_CGuzAfY-63">
          <mxGeometry relative="1" as="geometry">
            <Array as="points">
              <mxPoint x="800" y="1990" />
              <mxPoint x="800" y="1590" />
            </Array>
          </mxGeometry>
        </mxCell>
        <mxCell id="-TRMTuf33lLg_CGuzAfY-88" value="i = i + 1" style="whiteSpace=wrap;html=1;fontSize=16;" vertex="1" parent="1">
          <mxGeometry x="540" y="1960" width="120" height="60" as="geometry" />
        </mxCell>
        <mxCell id="-TRMTuf33lLg_CGuzAfY-91" value="TeIdentifico che ci sono due operazioni&amp;nbsp;&lt;div&gt;nel ramo Vero e nel ramo Falso che sono&lt;/div&gt;&lt;div&gt;uguali e quindi decido di toglierle&lt;/div&gt;&lt;div&gt;per mettere tale operazione dopo il raccordo.&lt;/div&gt;" style="text;html=1;align=center;verticalAlign=middle;resizable=0;points=[];autosize=1;strokeColor=none;fillColor=none;fontStyle=1" vertex="1" parent="1">
          <mxGeometry x="260" y="1838" width="260" height="70" as="geometry" />
        </mxCell>
        <mxCell id="-TRMTuf33lLg_CGuzAfY-92" value="F" style="text;html=1;align=center;verticalAlign=middle;resizable=0;points=[];autosize=1;strokeColor=none;fillColor=none;" vertex="1" parent="1">
          <mxGeometry x="485" y="645" width="30" height="30" as="geometry" />
        </mxCell>
        <mxCell id="-TRMTuf33lLg_CGuzAfY-93" value="F" style="text;html=1;align=center;verticalAlign=middle;resizable=0;points=[];autosize=1;strokeColor=none;fillColor=none;" vertex="1" parent="1">
          <mxGeometry x="515" y="1724" width="30" height="30" as="geometry" />
        </mxCell>
      </root>
    </mxGraphModel>
  </diagram>
</mxfile>
